<mxfile host="app.diagrams.net" modified="2021-10-06T07:50:03.733Z" agent="5.0 (X11; Linux x86_64) AppleWebKit/537.36 (KHTML, like Gecko) Chrome/94.0.4606.71 Safari/537.36" etag="FAeOdZP0s6rZnWVo3lY1" version="15.4.3" type="github">
  <diagram id="C5RBs43oDa-KdzZeNtuy" name="Page-1">
    <mxGraphModel dx="1422" dy="800" grid="1" gridSize="10" guides="1" tooltips="1" connect="1" arrows="1" fold="1" page="1" pageScale="1" pageWidth="827" pageHeight="1169" math="0" shadow="0">
      <root>
        <mxCell id="WIyWlLk6GJQsqaUBKTNV-0" />
        <mxCell id="WIyWlLk6GJQsqaUBKTNV-1" parent="WIyWlLk6GJQsqaUBKTNV-0" />
        <mxCell id="YBBvAF9tmUajq1PNm6zc-2" value="" style="edgeStyle=orthogonalEdgeStyle;rounded=0;orthogonalLoop=1;jettySize=auto;html=1;" edge="1" parent="WIyWlLk6GJQsqaUBKTNV-1" source="YBBvAF9tmUajq1PNm6zc-0" target="YBBvAF9tmUajq1PNm6zc-1">
          <mxGeometry relative="1" as="geometry" />
        </mxCell>
        <mxCell id="YBBvAF9tmUajq1PNm6zc-0" value="" style="shape=actor;whiteSpace=wrap;html=1;" vertex="1" parent="WIyWlLk6GJQsqaUBKTNV-1">
          <mxGeometry x="257" y="20" width="40" height="70" as="geometry" />
        </mxCell>
        <mxCell id="YBBvAF9tmUajq1PNm6zc-4" value="" style="edgeStyle=orthogonalEdgeStyle;rounded=0;orthogonalLoop=1;jettySize=auto;html=1;" edge="1" parent="WIyWlLk6GJQsqaUBKTNV-1" source="YBBvAF9tmUajq1PNm6zc-1" target="YBBvAF9tmUajq1PNm6zc-3">
          <mxGeometry relative="1" as="geometry" />
        </mxCell>
        <mxCell id="YBBvAF9tmUajq1PNm6zc-1" value="连接车载蓝牙" style="rounded=0;whiteSpace=wrap;html=1;" vertex="1" parent="WIyWlLk6GJQsqaUBKTNV-1">
          <mxGeometry x="217" y="120" width="120" height="40" as="geometry" />
        </mxCell>
        <mxCell id="YBBvAF9tmUajq1PNm6zc-6" value="" style="edgeStyle=orthogonalEdgeStyle;rounded=0;orthogonalLoop=1;jettySize=auto;html=1;" edge="1" parent="WIyWlLk6GJQsqaUBKTNV-1" source="YBBvAF9tmUajq1PNm6zc-3" target="YBBvAF9tmUajq1PNm6zc-5">
          <mxGeometry relative="1" as="geometry" />
        </mxCell>
        <mxCell id="YBBvAF9tmUajq1PNm6zc-3" value="打开YY直播" style="whiteSpace=wrap;html=1;rounded=0;" vertex="1" parent="WIyWlLk6GJQsqaUBKTNV-1">
          <mxGeometry x="217" y="210" width="120" height="40" as="geometry" />
        </mxCell>
        <mxCell id="YBBvAF9tmUajq1PNm6zc-9" value="" style="edgeStyle=orthogonalEdgeStyle;rounded=0;orthogonalLoop=1;jettySize=auto;html=1;" edge="1" parent="WIyWlLk6GJQsqaUBKTNV-1" source="YBBvAF9tmUajq1PNm6zc-5" target="YBBvAF9tmUajq1PNm6zc-8">
          <mxGeometry relative="1" as="geometry" />
        </mxCell>
        <mxCell id="YBBvAF9tmUajq1PNm6zc-5" value="识别为车载连接，进入驾车模式" style="whiteSpace=wrap;html=1;rounded=0;" vertex="1" parent="WIyWlLk6GJQsqaUBKTNV-1">
          <mxGeometry x="217" y="290" width="120" height="60" as="geometry" />
        </mxCell>
        <mxCell id="YBBvAF9tmUajq1PNm6zc-11" value="" style="edgeStyle=orthogonalEdgeStyle;rounded=0;orthogonalLoop=1;jettySize=auto;html=1;" edge="1" parent="WIyWlLk6GJQsqaUBKTNV-1" source="YBBvAF9tmUajq1PNm6zc-8" target="YBBvAF9tmUajq1PNm6zc-10">
          <mxGeometry relative="1" as="geometry" />
        </mxCell>
        <mxCell id="YBBvAF9tmUajq1PNm6zc-8" value="选择直播间类型（可选）" style="whiteSpace=wrap;html=1;rounded=0;" vertex="1" parent="WIyWlLk6GJQsqaUBKTNV-1">
          <mxGeometry x="217" y="390" width="120" height="60" as="geometry" />
        </mxCell>
        <mxCell id="YBBvAF9tmUajq1PNm6zc-13" value="" style="edgeStyle=orthogonalEdgeStyle;rounded=0;orthogonalLoop=1;jettySize=auto;html=1;" edge="1" parent="WIyWlLk6GJQsqaUBKTNV-1" source="YBBvAF9tmUajq1PNm6zc-10" target="YBBvAF9tmUajq1PNm6zc-12">
          <mxGeometry relative="1" as="geometry" />
        </mxCell>
        <mxCell id="YBBvAF9tmUajq1PNm6zc-10" value="进入直播间（自动切换为音频模式）" style="whiteSpace=wrap;html=1;rounded=0;" vertex="1" parent="WIyWlLk6GJQsqaUBKTNV-1">
          <mxGeometry x="217" y="490" width="120" height="60" as="geometry" />
        </mxCell>
        <mxCell id="YBBvAF9tmUajq1PNm6zc-12" value="开始驾车" style="ellipse;whiteSpace=wrap;html=1;rounded=0;" vertex="1" parent="WIyWlLk6GJQsqaUBKTNV-1">
          <mxGeometry x="217" y="590" width="120" height="60" as="geometry" />
        </mxCell>
        <mxCell id="YBBvAF9tmUajq1PNm6zc-15" value="固定的蓝牙指令支持" style="swimlane;" vertex="1" parent="WIyWlLk6GJQsqaUBKTNV-1">
          <mxGeometry x="364" y="60" width="420" height="270" as="geometry">
            <mxRectangle x="390" y="100" width="120" height="23" as="alternateBounds" />
          </mxGeometry>
        </mxCell>
        <mxCell id="YBBvAF9tmUajq1PNm6zc-16" value="下一曲（下一个直播间）" style="whiteSpace=wrap;html=1;" vertex="1" parent="YBBvAF9tmUajq1PNm6zc-15">
          <mxGeometry x="10" y="40" width="190" height="50" as="geometry" />
        </mxCell>
        <mxCell id="YBBvAF9tmUajq1PNm6zc-18" value="上一曲（上一个直播间）" style="whiteSpace=wrap;html=1;" vertex="1" parent="YBBvAF9tmUajq1PNm6zc-15">
          <mxGeometry x="220" y="40" width="190" height="50" as="geometry" />
        </mxCell>
        <mxCell id="YBBvAF9tmUajq1PNm6zc-19" value="暂停（退出当前直播间）" style="whiteSpace=wrap;html=1;" vertex="1" parent="YBBvAF9tmUajq1PNm6zc-15">
          <mxGeometry x="10" y="120" width="190" height="50" as="geometry" />
        </mxCell>
        <mxCell id="YBBvAF9tmUajq1PNm6zc-20" value="播放（进入上一个直播间）" style="whiteSpace=wrap;html=1;" vertex="1" parent="YBBvAF9tmUajq1PNm6zc-15">
          <mxGeometry x="220" y="120" width="190" height="50" as="geometry" />
        </mxCell>
        <mxCell id="YBBvAF9tmUajq1PNm6zc-21" value="播放两连击（刷新热门直播间，并进入第一个直播间）" style="whiteSpace=wrap;html=1;" vertex="1" parent="YBBvAF9tmUajq1PNm6zc-15">
          <mxGeometry x="10" y="200" width="190" height="50" as="geometry" />
        </mxCell>
        <mxCell id="YBBvAF9tmUajq1PNm6zc-22" value="暂停两连击（拉黑当前直播间，不再进入）" style="whiteSpace=wrap;html=1;" vertex="1" parent="YBBvAF9tmUajq1PNm6zc-15">
          <mxGeometry x="220" y="200" width="190" height="50" as="geometry" />
        </mxCell>
        <mxCell id="YBBvAF9tmUajq1PNm6zc-23" value="扩展的蓝牙指令支持" style="swimlane;" vertex="1" parent="WIyWlLk6GJQsqaUBKTNV-1">
          <mxGeometry x="364" y="385" width="420" height="200" as="geometry">
            <mxRectangle x="390" y="100" width="120" height="23" as="alternateBounds" />
          </mxGeometry>
        </mxCell>
        <mxCell id="YBBvAF9tmUajq1PNm6zc-24" value="下一曲 + 上一曲（切换到我的关注列表，进入第一个直播间）" style="whiteSpace=wrap;html=1;" vertex="1" parent="YBBvAF9tmUajq1PNm6zc-23">
          <mxGeometry x="10" y="40" width="190" height="50" as="geometry" />
        </mxCell>
        <mxCell id="YBBvAF9tmUajq1PNm6zc-25" value="上一曲 + 暂停（关注主播）" style="whiteSpace=wrap;html=1;" vertex="1" parent="YBBvAF9tmUajq1PNm6zc-23">
          <mxGeometry x="220" y="40" width="190" height="50" as="geometry" />
        </mxCell>
        <mxCell id="YBBvAF9tmUajq1PNm6zc-26" value="暂停 + 播放（送出免费的鲜花）" style="whiteSpace=wrap;html=1;" vertex="1" parent="YBBvAF9tmUajq1PNm6zc-23">
          <mxGeometry x="10" y="120" width="190" height="50" as="geometry" />
        </mxCell>
        <mxCell id="YBBvAF9tmUajq1PNm6zc-30" value="下一曲 + 播放（发送热词公屏）" style="whiteSpace=wrap;html=1;" vertex="1" parent="YBBvAF9tmUajq1PNm6zc-23">
          <mxGeometry x="220" y="120" width="190" height="50" as="geometry" />
        </mxCell>
      </root>
    </mxGraphModel>
  </diagram>
</mxfile>
